<?xml version="1.0" encoding="UTF-8"?>
<svg xmlns="http://www.w3.org/2000/svg" xmlns:xlink="http://www.w3.org/1999/xlink" version="1.1" viewBox="0 0 108 99">
  <defs>
    <style>
      .cls-1 {
        fill: url(#linear-gradient-2);
      }

      .cls-1, .cls-2, .cls-3, .cls-4 {
        fill-rule: evenodd;
      }

      .cls-2, .cls-3 {
        fill: #fff;
      }

      .cls-2, .cls-5 {
        display: none;
      }

      .cls-6 {
        fill: #5a3e92;
        stroke: #57479d;
        stroke-miterlimit: 10;
      }

      .cls-5 {
        fill: url(#linear-gradient);
      }
    </style>
    <linearGradient id="linear-gradient" x1="2.2" y1="977.8" x2="105.7" y2="1081.3" gradientTransform="translate(0 -980)" gradientUnits="userSpaceOnUse">
      <stop offset="0" stop-color="#60489d"/>
      <stop offset="0" stop-color="#62449b"/>
      <stop offset="1" stop-color="#8671b3"/>
    </linearGradient>
    <linearGradient id="linear-gradient-2" x1="31.9" y1="29.8" x2="93.7" y2="76.3" gradientUnits="userSpaceOnUse">
      <stop offset=".2" stop-color="#fff200"/>
      <stop offset=".8" stop-color="#fff15b"/>
    </linearGradient>
  </defs>
  <!-- Generator: Adobe Illustrator 28.7.1, SVG Export Plug-In . SVG Version: 1.2.0 Build 142)  -->
  <g>
    <g id="Layer_1">
      <g>
        <g id="Layer_2">
          <rect class="cls-6" x="-7.5" y="-5.7" width="127.3" height="114.6"/>
        </g>
        <path class="cls-3" d="M82.4,79.4l2.3-11.5s3.3-8.3,3.7-8.6,3.2-10,3.2-10l-3.2-7.8-3.8-10.2-3.8-4.4-4.6-1.8-6.1-5.3s-3.6-2.3-4.1-2.4-7.4,0-7.4,0c0,0-11.5-1.3-11.8-1.3s-4,.7-4.3.9-4.8,2.7-4.8,2.7l-4.8,2.8-5.1,3.9-2.8,6.3s-4.8,5.7-5,6-2,6.6-2,6.6c0,0-.5,5.8-.5,7.5s3.9,6.3,4.2,6.4,8,1.1,8,1.1l2.6,1.9s1.9,4.6,2.3,4.8,4,2,4.7,1.9,7.6-1.8,7.6-1.8l5.8-2.4,3.4,2.6,1.7,3.9,4.9,1.8s5,1.3,5.1,1.6,2.2,6.1,2.2,6.1l3,3.2,8.8-2.2.8-2.4Z"/>
        <polygon class="cls-2" points="73.2 54.3 65.9 57.8 55.1 63.4 57.4 69.5 65 72.5 68.4 75.3 70.2 80.2 73.9 82.9 79.7 82 84.5 71.8 84.5 65.5 79.1 57.5 73.2 54.3"/>
        <polygon class="cls-2" points="49 52.6 33.7 63.2 37 67.9 48.3 67.4 56.3 62.9 63.8 58.4 66.7 59.1 74.3 54.7 77 53.3 79.9 60.3 82.8 62.2 87.9 62.4 92.5 55.6 92.5 48.7 88.4 44.3 84.5 35.4 81 29 74.9 27 69.2 28.8 65 30.6 61.5 41 57.3 46.9 49 52.6"/>
        <path class="cls-2" d="M45.4,39.5l1.8-9.9,5.3-11.6s6.3-2.6,6.7-2.6,10.6,1.9,10.6,1.9l4.5,6.6-5,4.9s-5.8,5.5-6.1,6-1.1,4.7-1.1,4.7l-4.7,6.3-4.3,4.7-3.6,3.2-15.1,10.6-2.2-8.8,4.2-10,9.1-5.9Z"/>
        <path class="cls-2" d="M54,18.8l-5.2-1.9-13.8,3.9-5.3,3.9s-3.3,5.3-4.1,6.8-4.6,8.2-4.6,8.2l-2.7,9.5.8,6.2,6.1,5.3,4.8-.6,5.1-10.8,8.2-8.2,3.4-1.5,2.3-11.7,5-9.3Z"/>
        <g id="Layer_1-2" data-name="Layer_1">
          <g>
            <g id="Layer_3">
              <rect class="cls-5" width="108" height="99"/>
            </g>
            <g id="Layer_2-2">
              <path class="cls-1" d="M24.6,36.6l2.4-10.4,6.9-1.5,3.8-2.4,6.1-6.8,7.9,1.3,5.9.3,3.3-1,5.8.3,5,5.6s3,3.3,3.5,3.9,5.6,2.9,5.6,2.9l7.9,6.3v8.5l3.1,3.3s1.7,10.3,1.7,10.8-1.6,5.4-1.6,5.4l-4.5,4.5-1.9,6.9-3.3,8.2-3.5,3-7.5-1.2-1.1-6.6s-1.1-2.3-3-2.3-7.7-1.5-7.7-1.5c0,0-3.4-5.9-4-6.1s-5.5,1.6-5.5,1.6l-15,.6-2.4-5.9s-3.8-.7-6.1-1.2-6.9-3.1-6.9-3.1c0,0-3.3-9.8-3.3-10.1s1.5-7.7,1.7-8.1,6.1-5.2,6.1-5.2l.2.2.4-.2Z"/>
            </g>
            <g id="Layer_1-2">
              <g id="Page-1">
                <g id="noun-brain-4415232">
                  <path id="Shape" class="cls-4" d="M65.8,69.3c-1,0-2.3,0-3.7-.2-1.3-.3-2.5-.8-3.4-1.7-.6-.6-1.3-1.6-1.8-3.1,1.4-1,2.9-1.8,4.3-2.3,1.9-.6,3.2-.8,3.8-.8,1.4,0,2.7-1,2.8-2.4,0-1.4-1-2.7-2.4-2.8-1.6,0-3.8.4-5.9,1.1-2.2.8-4.7,2.2-7,4.2-4.1,3.5-6.8,5.6-11.2,4.4-4.3-1.1-5.6-3.2-6.6-6.2h0c-1.9-5.5,5.8-15.8,11.3-16.3,1.4-.2,2.5-1.4,2.3-2.9-.2-1.4-1.4-2.5-2.9-2.3-8.3.8-17.2,13-16.3,20.1-1.8,0-3.2-.6-4.3-1.4-1.7-1.3-3-3.3-3.5-5.8-1.1-5.1.8-10.6,5.7-12.6,1.9-.7,3.9-.9,5.9-.4,2,.5,2.8-.5,3.1-1.9s-.5-2.8-1.9-3.1c-2-.6-4.1-.6-6.1-.3,0-4.6,4.7-7.6,8.1-6.1.7.3,1.6.3,2.2,0s1.2-1,1.3-1.9c.8-4.4,5.8-6.3,9.3-4.5-.6.7-1.2,1.6-1.8,2.4-.9,1.6-1.7,3.3-2.3,5.4-.5,1.4.3,2.9,1.7,3.3s2.9-.3,3.3-1.7c.6-1.9,1.2-3.2,1.9-4.3.6-1.1,1.6-2.1,2.9-3.5h0l.4-.4h0c3.5-2.9,6.3-2.8,9.9-1.9,2.7.7,4.8,2.5,5.5,5-5.4,1.3-10.1,5.9-10.2,12-.5,2.8-.6,3.8-1.5,5.3-2,2.9-5.8,6-8.7,7.5-1.7.8-3.2,1.9-2.5,4,1,2.3,3.7,1.4,6.1.3,2-1.3,4.2-2.3,7.1-6.6.9-1.7,1.1-2.1,1.8-2.9.8,1.2,2,2.3,3.4,3.1,1.2.7,2.8.4,3.6-.8.7-1.2.4-2.8-.8-3.6-2.3-1.5-3.3-3.8-3.3-6,0-4,3.6-7.3,7.9-7.4,3.1,0,5.6,1.5,7.3,4,1.3,1.9,1.9,4.1,1.9,6.3-.9,0-1.9-.2-2.7,0-1.4,0-2.6,1.3-2.5,2.7,0,1.4,1.3,2.6,2.7,2.5,1.3,0,2.6,0,4,.5,3.1.8,4.7,3.8,4.4,7.7-.2,3-1.5,5.8-3.8,7.9-.6-1.7-1.6-3.2-2.6-4.6-1.8-2.3-4.3-4.3-7.2-5.1s-2.8.5-3.1,1.9.5,2.8,1.9,3.1,3.1,1.6,4.4,3.2c1.3,1.7,2.2,3.8,2.7,5.8h0c.2,1,.2,2.7,0,4.6-.3,1.9-.9,4-1.7,5.7-.8,1.9-1.8,3.1-2.8,4-.9.7-1.7.9-2.6.6s-3.6-1.9-3.1-8.2c0-.8-.3-1.7-.9-2.2s-1.5-.7-2.3-.6M29.2,64c-3.7.4-7-.6-9.6-2.5-3.1-2.3-5-5.8-5.8-9.5-1.5-6.6.6-14.8,7.4-18.8-1-8.1,5.8-15.4,13.3-14.3,3.1-7.3,12.7-9.3,18.7-5,4.2-3,9.6-3.5,14.2-2.2,4.8,1.3,9.1,4.9,10,10.5,4.2.6,7.6,3.2,9.9,6.5,2.2,3.2,3.3,7.3,3,11.4,4.9,2.5,6.8,8.1,6.5,13-.4,5.2-3.1,10.8-8.2,13.9,0,1.5,0,3.1-.4,4.7-.4,2.5-1.1,5.1-2.2,7.5-1,2.4-2.5,4.7-4.5,6.3-2,1.7-4.7,2.6-7.8,1.8s-7-4.7-7.4-11.3c-1.3,0-2.9,0-4.5-.4-2.1-.5-4.4-1.3-6.4-3.1-1-1-1.9-2.2-2.6-3.6-3.6,2.7-7.9,4.7-13.7,3.1s-7.9-4.2-9.9-8h.2-.2Z"/>
                </g>
              </g>
            </g>
          </g>
        </g>
      </g>
    </g>
  </g>
</svg>